<svg width="60" height="60" viewBox="0 0 60 60" fill="none" xmlns="http://www.w3.org/2000/svg">
<rect width="60" height="60" rx="10" fill="white"/>
<path d="M22.1426 37.1973C22.1426 36.7988 22.084 36.4414 21.9668 36.125C21.8496 35.7969 21.6328 35.4922 21.3164 35.2109C21 34.9297 20.543 34.6484 19.9453 34.3672C19.3594 34.0742 18.5859 33.7695 17.625 33.4531C16.5 33.0781 15.416 32.6562 14.373 32.1875C13.3301 31.707 12.3984 31.1504 11.5781 30.5176C10.7578 29.873 10.1074 29.123 9.62695 28.2676C9.14648 27.4004 8.90625 26.3926 8.90625 25.2441C8.90625 24.1426 9.15234 23.1523 9.64453 22.2734C10.1367 21.3828 10.8223 20.627 11.7012 20.0059C12.5918 19.373 13.6348 18.8926 14.8301 18.5645C16.0254 18.2246 17.332 18.0547 18.75 18.0547C20.625 18.0547 22.2773 18.3828 23.707 19.0391C25.1484 19.6836 26.2734 20.6035 27.082 21.7988C27.9023 22.9824 28.3125 24.3828 28.3125 26H22.1777C22.1777 25.3555 22.043 24.7871 21.7734 24.2949C21.5156 23.8027 21.123 23.416 20.5957 23.1348C20.0684 22.8535 19.4062 22.7129 18.6094 22.7129C17.8359 22.7129 17.1855 22.8301 16.6582 23.0645C16.1309 23.2988 15.7324 23.6152 15.4629 24.0137C15.1934 24.4004 15.0586 24.8281 15.0586 25.2969C15.0586 25.6836 15.1641 26.0352 15.375 26.3516C15.5977 26.6562 15.9082 26.9434 16.3066 27.2129C16.7168 27.4824 17.209 27.7402 17.7832 27.9863C18.3691 28.2324 19.0254 28.4727 19.752 28.707C21.1113 29.1406 22.3184 29.627 23.373 30.166C24.4395 30.6934 25.3359 31.2969 26.0625 31.9766C26.8008 32.6445 27.3574 33.4062 27.7324 34.2617C28.1191 35.1172 28.3125 36.084 28.3125 37.1621C28.3125 38.3105 28.0898 39.3301 27.6445 40.2207C27.1992 41.1113 26.5605 41.8672 25.7285 42.4883C24.8965 43.0977 23.9004 43.5605 22.7402 43.877C21.5801 44.1934 20.2852 44.3516 18.8555 44.3516C17.543 44.3516 16.248 44.1875 14.9707 43.8594C13.7051 43.5195 12.5566 43.0039 11.5254 42.3125C10.4941 41.6094 9.66797 40.7129 9.04688 39.623C8.4375 38.5215 8.13281 37.2148 8.13281 35.7031H14.3203C14.3203 36.4531 14.4199 37.0859 14.6191 37.6016C14.8184 38.1172 15.1113 38.5332 15.498 38.8496C15.8848 39.1543 16.3594 39.377 16.9219 39.5176C17.4844 39.6465 18.1289 39.7109 18.8555 39.7109C19.6406 39.7109 20.2734 39.5996 20.7539 39.377C21.2344 39.1426 21.5859 38.8379 21.8086 38.4629C22.0312 38.0762 22.1426 37.6543 22.1426 37.1973ZM41.707 35.3164H35.3438V30.5527H41.707C42.5742 30.5527 43.2773 30.4062 43.8164 30.1133C44.3555 29.8203 44.748 29.416 44.9941 28.9004C45.252 28.373 45.3809 27.7812 45.3809 27.125C45.3809 26.4219 45.252 25.7715 44.9941 25.1738C44.748 24.5762 44.3555 24.0957 43.8164 23.7324C43.2773 23.3574 42.5742 23.1699 41.707 23.1699H37.6641V44H31.4941V18.4062H41.707C43.7578 18.4062 45.5215 18.7812 46.998 19.5312C48.4863 20.2812 49.6289 21.3125 50.4258 22.625C51.2227 23.9258 51.6211 25.4141 51.6211 27.0898C51.6211 28.7422 51.2227 30.1836 50.4258 31.4141C49.6289 32.6445 48.4863 33.6055 46.998 34.2969C45.5215 34.9766 43.7578 35.3164 41.707 35.3164Z" fill="#3B5898"/>
</svg>
